<?xml version="1.0"?>
<svg xmlns="http://www.w3.org/2000/svg" viewBox="0 0 64 64" width="512" height="512"><g id="Document"><path d="M49,32H13a1,1,0,0,0-1,1V49a1,1,0,0,0,1,1H49a1,1,0,0,0,1-1V33A1,1,0,0,0,49,32Zm-1,4H26V34H48ZM20,44V42h4v2Zm4,2v2H20V46Zm0-8v2H20V38Zm-4-2V34h4v2Zm-2,4H14V38h4Zm0,2v2H14V42Zm8,0H48v2H26Zm0-2V38H48v2Zm-8-6v2H14V34ZM14,46h4v2H14Zm12,2V46H48v2Z"/><path d="M57,2H13A5.006,5.006,0,0,0,8,7V52H3a1,1,0,0,0-1,1v4a5.006,5.006,0,0,0,5,5H49a5.006,5.006,0,0,0,5-5V12h7a1,1,0,0,0,1-1V7A5.006,5.006,0,0,0,57,2ZM4,57V54H44v3a4.948,4.948,0,0,0,1.026,3H7A3,3,0,0,1,4,57Zm48,0a3,3,0,0,1-6,0V53a1,1,0,0,0-1-1H10V7a3,3,0,0,1,3-3H52.556A3.959,3.959,0,0,0,52,6Zm8-47H54V6a2,2,0,0,1,2-2h1a3,3,0,0,1,3,3Z"/><path d="M31.805,20a1.19,1.19,0,0,1,1.154.725,1,1,0,0,1-.166.885,1.047,1.047,0,0,1-1.679-.136,2.518,2.518,0,0,0-3.024-1.357,2.469,2.469,0,0,0-1.539,1.39,2.588,2.588,0,0,0,.078,2.175,6.085,6.085,0,0,0,3.376,2.975,2.5,2.5,0,0,0,5-.156v-.3A6.006,6.006,0,0,0,32.168,15a1.141,1.141,0,0,1-1.156-.874.981.981,0,0,1,.237-.786,1.049,1.049,0,0,1,1.637.187,2.515,2.515,0,0,0,3.027,1.355,2.453,2.453,0,0,0,1.539-1.392,2.627,2.627,0,0,0-.1-2.213A6.076,6.076,0,0,0,35,8.809V8.5a2.5,2.5,0,0,0-5-.021l-.047.028c-.238.142-.6.361-1.182.7a5.419,5.419,0,0,0-2.646,3.537A6.013,6.013,0,0,0,31.805,20Zm-3.721-6.857a3.427,3.427,0,0,1,1.694-2.209c.586-.342.958-.564,1.2-.708l.252-.152A1,1,0,0,0,32,9.1V8.5a.5.5,0,0,1,1,0v.92a1,1,0,0,0,.595.914,4.066,4.066,0,0,1,1.973,1.854.627.627,0,0,1,.04.528.444.444,0,0,1-.294.258c-.369.117-.585-.231-.645-.352A3.03,3.03,0,0,0,32,11a3,3,0,0,0-2.973,3.38A3.1,3.1,0,0,0,32.111,17a4.013,4.013,0,0,1,3.825,4.753v0A3.993,3.993,0,0,1,33.6,24.672a1,1,0,0,0-.6.918v.91a.5.5,0,0,1-1,0v-.6a1,1,0,0,0-.8-.979,4.065,4.065,0,0,1-2.786-2.136.586.586,0,0,1-.026-.5.456.456,0,0,1,.294-.264A.507.507,0,0,1,28.834,22a.614.614,0,0,1,.5.377A3.03,3.03,0,0,0,32,24a3,3,0,0,0,2.893-3.787A3.127,3.127,0,0,0,31.87,18a4.014,4.014,0,0,1-3.786-4.858Z"/></g></svg>
