<?xml version="1.0" encoding="iso-8859-1"?>
<!-- Generator: Adobe Illustrator 19.0.0, SVG Export Plug-In . SVG Version: 6.00 Build 0)  -->
<svg version="1.1" id="Capa_1" xmlns="http://www.w3.org/2000/svg" xmlns:xlink="http://www.w3.org/1999/xlink" x="0px" y="0px"
	 viewBox="0 0 472.615 472.615" style="enable-background:new 0 0 472.615 472.615;" xml:space="preserve">
<g>
	<g>
		<polygon points="400.738,213.662 400.738,403.692 19.692,403.692 19.692,171.323 320,171.323 310.154,151.631 0,151.631 
			0,423.385 420.431,423.385 420.431,203.816 		"/>
	</g>
</g>
<g>
	<g>
		<polygon points="328.861,193.969 209.723,275.692 14.769,153.6 4.923,170.338 210.708,299.323 350.523,202.831 		"/>
	</g>
</g>
<g>
	<g>
		
			<rect x="-21.138" y="328.978" transform="matrix(0.7071 -0.7071 0.7071 0.7071 -214.6306 159.4848)" width="212.675" height="19.692"/>
	</g>
</g>
<g>
	<g>
		
			<rect x="324.703" y="229.557" transform="matrix(0.707 -0.7073 0.7073 0.707 -140.2274 335.334)" width="19.694" height="214.659"/>
	</g>
</g>
<g>
	<g>
		<path d="M387.938,49.231c-46.277,0-84.677,38.4-84.677,84.677c0,46.277,38.4,84.677,84.677,84.677
			c46.277,0,84.677-38.4,84.677-84.677C472.615,87.631,434.215,49.231,387.938,49.231z M387.938,198.892
			c-35.446,0-64.985-29.538-64.985-64.985c0-35.446,29.538-64.985,64.985-64.985s64.985,29.539,64.985,64.985
			C452.923,169.354,423.385,198.892,387.938,198.892z"/>
	</g>
</g>
<g>
	<g>
		<rect x="377.108" y="93.539" width="19.692" height="53.169"/>
	</g>
</g>
<g>
	<g>
		<path d="M384.985,162.462c-5.908,0-10.831,4.923-10.831,10.831s4.923,10.831,10.831,10.831c5.908,0,10.831-4.923,10.831-10.831
			S390.892,162.462,384.985,162.462z"/>
	</g>
</g>
<g>
</g>
<g>
</g>
<g>
</g>
<g>
</g>
<g>
</g>
<g>
</g>
<g>
</g>
<g>
</g>
<g>
</g>
<g>
</g>
<g>
</g>
<g>
</g>
<g>
</g>
<g>
</g>
<g>
</g>
</svg>
