<svg id="_x33_0" enable-background="new 0 0 64 64" height="512" viewBox="0 0 64 64" width="512" xmlns="http://www.w3.org/2000/svg"><g><g><g><path d="m52 17.302-5.417-4.514c-1.006-.84-1.583-2.071-1.583-3.38 0-1.159.47-2.293 1.289-3.111.837-.838 1.945-1.297 3.125-1.297h.172c.871 0 1.703.25 2.414.717.711-.467 1.543-.717 2.414-.717h.172c1.18 0 2.288.459 3.122 1.293.822.822 1.292 1.956 1.292 3.115 0 1.309-.577 2.54-1.583 3.379z" fill="#f0bc5e"/></g></g><g><path d="m7 47h10v12h-10z" fill="#f0bc5e"/></g><g><path d="m60 1h-16c-1.302 0-2.402.839-2.816 2h-21.184c-2.757 0-5 2.243-5 5v31.042c-.135-.024-.272-.042-.414-.042-.635 0-1.257.258-1.707.707l-3.293 3.293h-5.586c-1.654 0-3 1.346-3 3v14c0 1.654 1.346 3 3 3h40c2.757 0 5-2.243 5-5v-33.035c.74.128 1.571-.123 2.121-.672l3.293-3.293h5.586c1.654 0 3-1.346 3-3v-14c0-1.654-1.346-3-3-3zm-13 48h-24v-3c0-1.654-1.346-3-3-3h-3v-32h24v7c0 1.654 1.346 3 3 3h3zm-27-44h21v4h-24v-1c0-1.654 1.346-3 3-3zm-16 56c-.551 0-1-.448-1-1v-14c0-.552.449-1 1-1h6.414l3.878-3.878c.241-.242.708-.045.708.292v3.586h5c.551 0 1 .448 1 1v14c0 .552-.449 1-1 1zm40 0h-21.184c.112-.314.184-.648.184-1v-9h24v7c0 1.654-1.346 3-3 3zm17-43c0 .552-.449 1-1 1h-6.414l-3.878 3.878c-.241.242-.708.045-.708-.292v-3.586h-5c-.551 0-1-.448-1-1v-14c0-.552.449-1 1-1h16c.551 0 1 .448 1 1z"/><path d="m35 53h-6c-1.103 0-2 .897-2 2v2c0 1.103.897 2 2 2h6c1.103 0 2-.897 2-2v-2c0-1.103-.897-2-2-2zm-6 4v-2h6l.001 2z"/><path d="m7 47h2v8h-2z"/><path d="m7 57h2v2h-2z"/><path d="m11 47h2v8h-2z"/><path d="m11 57h2v2h-2z"/><path d="m15 47h2v8h-2z"/><path d="m15 57h2v2h-2z"/><path d="m43 45h2v2h-2z"/><path d="m39 45h2v2h-2z"/><path d="m35 45h2v2h-2z"/><path d="m36 23c-1.654 0-3 1.346-3 3s1.346 3 3 3 3-1.346 3-3-1.346-3-3-3zm0 4c-.551 0-1-.448-1-1s.449-1 1-1 1 .448 1 1-.449 1-1 1z"/><path d="m28 23c-1.654 0-3 1.346-3 3s1.346 3 3 3 3-1.346 3-3-1.346-3-3-3zm0 4c-.551 0-1-.448-1-1s.449-1 1-1 1 .448 1 1-.449 1-1 1z"/><path d="m39 32.5.667-.5c2.087-1.565 3.333-4.058 3.333-6.667 0-4.595-3.738-8.333-8.333-8.333h-5.333c-4.596 0-8.334 3.738-8.334 8.333 0 2.609 1.246 5.102 3.333 6.667l.667.5v3.5c0 1.654 1.346 3 3 3 .771 0 1.468-.301 2-.78.532.48 1.229.78 2 .78s1.468-.301 2-.78c.532.48 1.229.78 2 .78 1.654 0 3-1.346 3-3zm-2-1v4.5c0 .552-.449 1-1 1s-1-.448-1-1v-3h-2v3c0 .552-.449 1-1 1s-1-.448-1-1v-3h-2v3c0 .552-.449 1-1 1s-1-.448-1-1v-4.5l-1.467-1.1c-1.586-1.189-2.533-3.084-2.533-5.067 0-3.492 2.841-6.333 6.333-6.333h5.333c3.493 0 6.334 2.841 6.334 6.333 0 1.983-.947 3.878-2.533 5.067z"/></g></g></svg>