<?xml version="1.0" encoding="utf-8"?>
<svg xmlns="http://www.w3.org/2000/svg" xmlns:xlink="http://www.w3.org/1999/xlink" enable-background="new 0 0 64 64" viewBox="0 0 64 64" width="512" height="512"><path d="m10 21h44c2.2 0 4 1.8 4 4v28c0 2.2-1.8 4-4 4h-44c-2.2 0-4-1.8-4-4v-28c0-2.2 1.8-4 4-4z" fill="#d9d9d9"/><path d="m44.3 20.3-2.8-2.8-4 4c-.8.8-2.2.8-3 0s-.8-2.2 0-3l3.4-3.4c.2-.2.4-.4.6-.7l-2.8-2.8c-.4-.4-1-.4-1.4 0l-4.3 4.4-5 5-4 4-1.3 1.3c-.4.4-.4 1 0 1.4l2.3 2.3 6.3 6.3c.4.4 1 .4 1.4 0l11.3-11.3 3.3-3.3c.4-.4.4-1 0-1.4z" fill="#41bdf7"/><path d="m28.3 36.3-6.3-6.3-2.3-2.3c-.4-.4-.4-1 0-1.4l1.3-1.3h-11v28h44v-28h-13l-11.3 11.3c-.4.4-1 .4-1.4 0z" fill="#d2ebf7"/><path d="m9 61h46c3.3 0 6-.7 6-4h-58c0 3.3 2.7 4 6 4z" fill="#d9d9d9"/><path d="m40 41v8h10v-8z" fill="#f7ba41"/><path d="m40 10c0 1.9-.8 3.8-2.1 5.1l-3.4 3.4c-.8.8-.8 2.2 0 3 .8.8 2.2.8 3 0l6.5-6.5c2 1.3 4.3 2 6.6 2h11.4v-9h-9l-16-5-7 5v8l5-5 3 3" fill="#f7d797"/><path d="m37.3 2c-.3 0-.6 0-.9.2l-7 5c-.2.2-.4.5-.4.8v7.6l-4.4 4.4h-14.6c-2.8 0-5 2.2-5 5v28c0 1.1.4 2.1 1 3h-3c-.6 0-1 .4-1 1 0 5 5.3 5 7 5h46c1.7 0 7 0 7-5 0-.6-.4-1-1-1h-3c.7-.9 1-1.9 1-3v-28c0-2.8-2.2-5-5-5h-8.7c-.1-.2-.2-.3-.3-.4l-2.1-2.1 1.2-1.2c2 1.1 4.2 1.7 6.5 1.7h11.4v-2h-11.4c-2.2 0-4.3-.6-6-1.8-.4-.3-.9-.2-1.3.1l-6.5 6.5c-.4.4-1.1.4-1.6 0-.4-.4-.4-1.1 0-1.6l3.4-3.4c1.6-1.5 2.4-3.6 2.4-5.8h-2c0 1-.2 2-.7 2.9l-1.9-1.9c-.8-.8-2-.8-2.8 0l-2.6 2.6v-5.1l6.2-4.4 15.5 4.9h.3 9v-2h-8.8zm17.7 58h-46c-3.3 0-4.5-.8-4.9-2h55.8c-.4 1.2-1.6 2-4.9 2zm2-35v28c0 1.7-1.3 3-3 3h-44c-1.7 0-3-1.3-3-3v-28c0-1.7 1.3-3 3-3h12.6l-2 2h-10.6c-.6 0-1 .4-1 1v28c0 .6.4 1 1 1h44c.6 0 1-.4 1-1v-28c0-.6-.4-1-1-1h-10.6l1.6-1.6c.1-.1.2-.3.3-.4h8.7c1.7 0 3 1.3 3 3zm-38 3.4 8.6 8.6c.8.8 2 .8 2.8 0l11-11h11.6v26h-42v-26h7.7c-.5.8-.3 1.8.3 2.4zm16-16 2.1 2.1-3.3 3.3c-1.2 1.2-1.2 3.2 0 4.4s3.2 1.2 4.4 0l3.3-3.3 2.1 2.1-14.6 14.6-5.6-5.6 8.3-8.3-1.4-1.4-8.3 8.3-1.6-1.6z"/><path d="m19.4 34.5h4.2v2h-4.2z" transform="matrix(.7071 -.7071 .7071 .7071 -18.8051 25.6009)"/><path d="m17.8 37.5h1.4v2h-1.4z" transform="matrix(.7071 -.7071 .7071 .7071 -21.8052 24.358)"/><path d="m20 38.5h7.1v2h-7.1z" transform="matrix(.7071 -.7071 .7071 .7071 -21.048 28.1859)"/><path d="m18.8 42.5h1.4v2h-1.4z" transform="matrix(.7071 -.7071 .7071 .7071 -25.0475 26.5291)"/><path d="m40 50h10c.6 0 1-.4 1-1v-8c0-.6-.4-1-1-1h-1v-3.4c0-2.2-1.8-4-4-4s-4 1.8-4 4v.4h2v-.4c0-1.1.9-2 2-2s2 .9 2 2v3.4h-7c-.6 0-1 .4-1 1v8c0 .6.4 1 1 1zm1-8h8v6h-8z"/><path d="m44 44h2v2h-2z"/></svg>
