<svg viewBox="0 0 480 480.0035" xmlns="http://www.w3.org/2000/svg"><path d="m282.398438.542969c-2.390626-.746094-4.992188-.328125-7.03125 1.128906l-56 40c-2.109376 1.496094-3.363282 3.921875-3.367188 6.511719v60.6875l-35.3125 35.3125h-116.6875c-22.082031.027344-39.972656 17.917968-40 40v224c.027344 8.683594 2.914062 17.117187 8.207031 24h-24.207031c-4.417969 0-8 3.582031-8 8 0 40 42.152344 40 56 40h368c13.847656 0 56 0 56-40 0-4.417969-3.582031-8-8-8h-24.210938c5.296876-6.882813 8.179688-15.316406 8.210938-24v-224c-.027344-22.082032-17.921875-39.972656-40-40h-69.527344c-.675781-1.207032-1.507812-2.320313-2.472656-3.3125l-16.6875-16.6875 9.855469-9.855469c15.699219 9.089844 33.527343 13.871094 51.671875 13.855469h91.160156v-16h-91.199219c-17.230469.015625-34.078125-5.085938-48.402343-14.65625-3.171876-2.117188-7.398438-1.699219-10.09375 1l-52 52c-3.550782 3.390625-9.140626 3.390625-12.691407 0-1.683593-1.679688-2.632812-3.964844-2.632812-6.34375 0-2.382813.949219-4.664063 2.632812-6.34375l27.035157-27.03125c12.417968-12.332032 19.390624-29.121094 19.351562-46.625h-16c.023438 8.023437-1.898438 15.929687-5.601562 23.046875l-15.085938-15.046875c-6.25-6.246094-16.378906-6.246094-22.625 0l-20.6875 20.6875v-40.566406l49.40625-35.320313 124.191406 38.839844c.777344.238281 1.585938.363281 2.402344.359375h72v-16h-70.777344zm141.601562 463.640625h-368c-26.585938 0-36.242188-6.152344-39.03125-16h446.0625c-2.792969 9.847656-12.449219 16-39.03125 16zm16-280v224c0 13.253906-10.746094 24-24 24h-352c-13.253906 0-24-10.746094-24-24v-224c0-13.253906 10.746094-24 24-24h100.6875l-16 16h-84.6875c-4.417969 0-8 3.582031-8 8v224c0 4.417968 3.582031 8 8 8h352c4.417969 0 8-3.582032 8-8v-224c0-4.417969-3.582031-8-8-8h-84.6875l12.6875-12.6875c.964844-.992188 1.796875-2.105469 2.472656-3.3125h69.527344c13.253906 0 24 10.746094 24 24zm-304 27.3125 68.6875 68.6875c6.246094 6.246094 16.375 6.246094 22.625 0l88-88h92.6875v208h-336v-208h61.527344c-3.636719 6.253906-2.625 14.171875 2.472656 19.3125zm128-128 16.6875 16.6875-26.34375 26.34375c-9.75 9.75-9.75 25.558594 0 35.3125 9.75 9.75 25.558594 9.75 35.3125 0l26.34375-26.34375 16.6875 16.6875-116.6875 116.6875-44.6875-44.6875 66.34375-66.34375-11.3125-11.3125-66.34375 66.34375-12.6875-12.6875zm0 0"/><path d="m138.34375 274.527344 24.003906-24 11.3125 11.3125-24 24.003906zm0 0"/><path d="m122.34375 290.527344 8-8 11.3125 11.3125-8 8zm0 0"/><path d="m146.335938 314.527344 40-40 11.316406 11.3125-40 40zm0 0"/><path d="m130.339844 330.523438 8-8 11.3125 11.3125-8 8zm0 0"/><path d="m304 384.183594h80c4.417969 0 8-3.582032 8-8v-64c0-4.417969-3.582031-8-8-8h-8v-27.199219c0-17.675781-14.328125-32-32-32-17.675781 0-32 14.324219-32 32v3.199219h16v-3.199219c0-8.839844 7.164062-16 16-16s16 7.160156 16 16v27.199219h-56c-4.417969 0-8 3.582031-8 8v64c0 4.417968 3.582031 8 8 8zm8-64h64v48h-64zm0 0"/><path d="m336 336.183594h16v16h-16zm0 0"/></svg>